<svg width="24" height="24" viewBox="0 0 24 24" fill="none" xmlns="http://www.w3.org/2000/svg">
<rect x="5.7" y="4.8" width="1.8" height="1.8" fill="white"/>
<rect x="16.5" y="4.8" width="1.8" height="1.8" fill="white"/>
<rect x="7.5" y="6.6" width="1.8" height="1.8" fill="white"/>
<rect x="14.7" y="6.6" width="1.8" height="1.8" fill="white"/>
<rect x="5.7" y="8.4" width="12.6" height="1.8" fill="white"/>
<rect x="3.9" y="10.2" width="3.6" height="1.8" fill="white"/>
<rect x="9.3" y="10.2" width="5.4" height="1.8" fill="white"/>
<rect x="16.5" y="10.2" width="3.6" height="1.8" fill="white"/>
<rect x="2.1" y="12" width="19.8" height="1.8" fill="white"/>
<rect x="2.1" y="13.8" width="1.8" height="1.8" fill="white"/>
<rect x="5.7" y="13.8" width="12.6" height="1.8" fill="white"/>
<rect x="20.1" y="13.8" width="1.8" height="1.8" fill="white"/>
<rect x="2.1" y="15.6" width="1.8" height="1.8" fill="white"/>
<rect x="5.7" y="15.6" width="1.8" height="1.8" fill="white"/>
<rect x="16.5" y="15.6" width="1.8" height="1.8" fill="white"/>
<rect x="20.1" y="15.6" width="1.8" height="1.8" fill="white"/>
<rect x="7.5" y="17.4" width="3.6" height="1.8" fill="white"/>
<rect x="12.9" y="17.4" width="3.6" height="1.8" fill="white"/>
</svg>
