<svg width="24" height="24" viewBox="0 0 24 24" fill="none" xmlns="http://www.w3.org/2000/svg">
<path fill-rule="evenodd" d="M7 4H17C18.66 4 20 5.34 20 7V17C20 18.66 18.66 20 17 20H7C5.34 20 4 18.66 4 17V7C4 5.34 5.34 4 7 4ZM6.85 8.2A1.35 1.35 0 1 0 9.55 8.2A1.35 1.35 0 1 0 6.85 8.2ZM14.45 8.2A1.35 1.35 0 1 0 17.15 8.2A1.35 1.35 0 1 0 14.45 8.2ZM10.65 12A1.35 1.35 0 1 0 13.35 12A1.35 1.35 0 1 0 10.65 12ZM6.85 15.8A1.35 1.35 0 1 0 9.55 15.8A1.35 1.35 0 1 0 6.85 15.8ZM14.45 15.8A1.35 1.35 0 1 0 17.15 15.8A1.35 1.35 0 1 0 14.45 15.8Z" fill="white"/>
</svg>
