<svg width="24" height="24" viewBox="0 0 24 24" fill="none" xmlns="http://www.w3.org/2000/svg">
<path fill-rule="evenodd" d="M9.2 2H14.8C15.35 2 15.8 2.45 15.8 3V8.2H21C21.55 8.2 22 8.65 22 9.2V14.8C22 15.35 21.55 15.8 21 15.8H15.8V21C15.8 21.55 15.35 22 14.8 22H9.2C8.65 22 8.2 21.55 8.2 21V15.8H3C2.45 15.8 2 15.35 2 14.8V9.2C2 8.65 2.45 8.2 3 8.2H8.2V3C8.2 2.45 8.65 2 9.2 2ZM12 4L13.6 6.8H10.4L12 4ZM12 20L10.4 17.2H13.6L12 20ZM4 12L6.8 10.4V13.6L4 12ZM20 12L17.2 13.6V10.4L20 12Z" fill="white"/>
</svg>
