<svg width="24" height="24" viewBox="0 0 24 24" fill="none" xmlns="http://www.w3.org/2000/svg">
<path d="M4.6 2.2V21.8" stroke="white" stroke-width="2" stroke-linecap="round"/>
<path fill-rule="evenodd" d="M5.4 3.5H19.8V13.1H5.4V3.5ZM7.8 3.5H10.2V5.9H7.8V3.5ZM12.6 3.5H15V5.9H12.6V3.5ZM17.4 3.5H19.8V5.9H17.4V3.5ZM5.4 5.9H7.8V8.3H5.4V5.9ZM10.2 5.9H12.6V8.3H10.2V5.9ZM15 5.9H17.4V8.3H15V5.9ZM7.8 8.3H10.2V10.7H7.8V8.3ZM12.6 8.3H15V10.7H12.6V8.3ZM17.4 8.3H19.8V10.7H17.4V8.3ZM5.4 10.7H7.8V13.1H5.4V10.7ZM10.2 10.7H12.6V13.1H10.2V10.7ZM15 10.7H17.4V13.1H15V10.7Z" fill="white"/>
</svg>
