<svg width="24" height="24" viewBox="0 0 24 24" fill="none" xmlns="http://www.w3.org/2000/svg">
<path fill-rule="evenodd" d="M4.5 7H19.5C20.9 7 22 8.1 22 9.5V14.5C22 15.9 20.9 17 19.5 17H4.5C3.1 17 2 15.9 2 14.5V9.5C2 8.1 3.1 7 4.5 7ZM8.5 9.2H15.5C15.72 9.2 15.9 9.38 15.9 9.6V14.4C15.9 14.62 15.72 14.8 15.5 14.8H8.5C8.28 14.8 8.1 14.62 8.1 14.4V9.6C8.1 9.38 8.28 9.2 8.5 9.2ZM3.7 12A1.5 1.5 0 1 0 6.7 12A1.5 1.5 0 1 0 3.7 12ZM17.8 10.6A1 1 0 1 0 19.8 10.6A1 1 0 1 0 17.8 10.6ZM17.8 13.4A1 1 0 1 0 19.8 13.4A1 1 0 1 0 17.8 13.4Z" fill="white"/>
</svg>
