<svg width="24" height="24" viewBox="0 0 24 24" fill="none" xmlns="http://www.w3.org/2000/svg">
<path fill-rule="evenodd" d="M12 2.8C6.6 2.8 2.8 6.9 2.8 11.3C2.8 12.4 3.7 13.3 4.8 13.3H19.2C20.3 13.3 21.2 12.4 21.2 11.3C21.2 6.9 17.4 2.8 12 2.8ZM10.5 6A1.5 1.5 0 1 0 13.5 6A1.5 1.5 0 1 0 10.5 6ZM6 9.7A1.4 1.4 0 1 0 8.8 9.7A1.4 1.4 0 1 0 6 9.7ZM15.2 9.7A1.4 1.4 0 1 0 18 9.7A1.4 1.4 0 1 0 15.2 9.7Z" fill="white"/>
<path d="M8.2 15H15.8V17.3C15.8 19.4 14.1 21.1 12 21.1C9.9 21.1 8.2 19.4 8.2 17.3V15Z" fill="white"/>
</svg>
