<svg width="24" height="24" viewBox="0 0 24 24" fill="none" xmlns="http://www.w3.org/2000/svg">
<path fill-rule="evenodd" d="M12 1.8C15.2 3.9 16.8 7.7 16.8 11.2C16.8 13.2 16.3 15.2 15.2 16.8H8.8C7.7 15.2 7.2 13.2 7.2 11.2C7.2 7.7 8.8 3.9 12 1.8ZM10.1 9.3A1.9 1.9 0 1 0 13.9 9.3A1.9 1.9 0 1 0 10.1 9.3Z" fill="white"/>
<path d="M7.3 11.7C5.6 13 4.3 14.8 4.3 18.2L8.2 16.4C7.8 15 7.5 13.4 7.3 11.7Z" fill="white"/>
<path d="M16.7 11.7C18.4 13 19.7 14.8 19.7 18.2L15.8 16.4C16.2 15 16.5 13.4 16.7 11.7Z" fill="white"/>
<path d="M10.6 18.3H13.4C13.4 20.3 12.7 21.4 12 22.3C11.3 21.4 10.6 20.3 10.6 18.3Z" fill="white"/>
</svg>
