<svg width="24" height="24" viewBox="0 0 24 24" fill="none" xmlns="http://www.w3.org/2000/svg">
<path fill-rule="evenodd" d="M12 2.5C6.9 2.5 3.5 6.1 3.5 10.6C3.5 13.4 4.9 15.7 7 17.1V19.9C7 20.5 7.5 21 8.1 21H15.9C16.5 21 17 20.5 17 19.9V17.1C19.1 15.7 20.5 13.4 20.5 10.6C20.5 6.1 17.1 2.5 12 2.5ZM6.7 10.8A2.1 2.1 0 1 0 10.9 10.8A2.1 2.1 0 1 0 6.7 10.8ZM13.1 10.8A2.1 2.1 0 1 0 17.3 10.8A2.1 2.1 0 1 0 13.1 10.8ZM12 13.2L13.2 15.5H10.8L12 13.2ZM10.35 17.6H11.25V21H10.35V17.6ZM12.75 17.6H13.65V21H12.75V17.6Z" fill="white"/>
</svg>
